<svg xmlns="http://www.w3.org/2000/svg" version="1.1" xmlns:xlink="http://www.w3.org/1999/xlink" xmlns:svgjs="http://svgjs.com/svgjs" width="1000" height="1000"><rect width="1000" height="1000" rx="400" ry="400" fill="#b8ec83"></rect><g transform="matrix(10,0,0,10,-6.759613037109375,4.056203842163086)"><svg xmlns="http://www.w3.org/2000/svg" version="1.1" xmlns:xlink="http://www.w3.org/1999/xlink" xmlns:svgjs="http://svgjs.com/svgjs" width="100" height="100"><svg version="1.1" id="Layer_1" xmlns="http://www.w3.org/2000/svg" xmlns:xlink="http://www.w3.org/1999/xlink" x="0px" y="0px" viewBox="0 0 100 100" style="enable-background:new 0 0 100 100;" xml:space="preserve">
<style type="text/css">
	.st0{fill-rule:evenodd;clip-rule:evenodd;fill:#1A1F1C;}
	.st1{fill-rule:evenodd;clip-rule:evenodd;fill:#4F703E;}
</style>
<path class="st0" d="M56.91,24.55c7.48,1.31,14.11,6.43,17.56,13.22c4.12,7.92,3.58,18.07-1.39,25.47
	c-3.74,5.76-9.91,9.82-16.64,10.95c-7.69,1.35-15.97-1.16-21.53-6.71c-5.51-5.22-8.31-13.1-7.55-20.67
	c-0.18,8.93,4.67,17.82,12.6,21.95c7.91,4.34,18.26,3.55,25.36-2.07c7.47-5.56,11.01-15.84,8.57-24.89
	C71.88,33.44,65.01,26.87,56.91,24.55L56.91,24.55z"></path>
<g>
	<path class="st1" d="M35.67,60.11c7.92,1.26,15.75,3.81,23.02,7.63C50.65,71.59,40.55,68.45,35.67,60.11z"></path>
	<path class="st1" d="M32.96,54.1c11.33,0.01,22.92,1.88,33.42,6.88c-1.55,2.04-3.32,3.84-5.28,5.33
		c-8.65-4.13-17.68-7.15-26.93-8.86C33.76,56.34,33.36,55.21,32.96,54.1z"></path>
	<path class="st1" d="M32.21,48.58c12.58-1.71,25.52-1.13,37.74,2.88c-0.21,2.65-1.25,5.07-2.29,7.41
		c-11.33-4.61-23.29-6.92-35.31-7.11C32.31,50.69,32.26,49.63,32.21,48.58z"></path>
</g>
<path class="st0" d="M45.72,31.85c2.02-1.56,4.97-1.43,6.83,0.41c0.72,0.73,1.24,1.79,1.21,2.91c-3.24,0-6.47,0.01-9.71,0
	C44.02,33.82,44.76,32.59,45.72,31.85L45.72,31.85z M33.32,31.96c-0.02-0.05-0.05-0.1-0.07-0.15c0,0.05,0.01,0.15,0.01,0.21
	c-2.44-0.22-4.89-0.25-7.33,0.01c-0.55,0.1-1.17,0.08-1.65,0.47c0.25,0.28,0.62,0.32,0.95,0.39c2.84,0.41,5.72,0.35,8.57,0.04
	c0.01,0.86,0,1.71,0.01,2.57c0.03,0.34-0.37,0.55-0.24,0.91c0.11,0.46,0.59,0.42,0.92,0.41c0.12,0.19,0.23,0.43,0.45,0.5
	c3.98,1.01,7.97,1.95,11.94,2.97c0.16,0.78,0.67,1.39,1.31,1.7c0.01,1.07,0,2.14,0,3.22l1.42,0.57c0-1.07,0.04-2.72,0.05-3.79
	c0.64-0.31,1.15-0.94,1.32-1.72c3.94-0.98,7.88-1.95,11.82-2.93c0.25-0.03,0.38-0.3,0.51-0.52c0.36-0.01,0.9,0.09,1.02-0.43
	c0.13-0.41-0.35-0.58-0.3-0.97c0.01-0.83,0-1.67,0.01-2.5c2.61,0.33,5.24,0.3,7.86,0.1c-0.03-0.02-0.05-0.03-0.08-0.05
	c0.58-0.06,1.26-0.02,1.73-0.47c-0.58-0.44-1.32-0.41-1.98-0.51c-0.74,0-1.48-0.09-2.22-0.13c-1.47-0.05-2.94,0-4.4,0.11
	c0.02,0.02,0.05,0.03,0.07,0.05c-0.15,0-0.29,0.01-0.44,0.01c-0.1-1.09-1.69-1.09-1.8,0c-1.3-0.14-2.62-0.18-3.93-0.18
	c-1.54,0.04-3.1,0.04-4.61,0.41c-0.13,0.06-0.38,0.09-0.37,0.3c0.29,0.28,0.69,0.28,1.04,0.36c1.76,0.26,3.54,0.28,5.31,0.25
	c1.03-0.06,2.08-0.07,3.1-0.28c0.01,0.93,0,1.87,0,2.8c-9.6,0.01-19.2,0-28.8,0c-0.03-0.93-0.01-1.87-0.01-2.8
	c2.14,0.34,4.32,0.32,6.47,0.22c0.92-0.09,1.87-0.08,2.76-0.4c0.11-0.03,0.19-0.13,0.28-0.22c-0.45-0.35-1.02-0.36-1.54-0.45
	c-2.47-0.29-4.96-0.25-7.43-0.02C34.98,30.99,33.37,30.89,33.32,31.96L33.32,31.96z M48.75,38.13c0.66-0.1,1.32,0.43,1.5,1.15
	c0.23,0.81-0.23,1.77-0.96,1.98c-0.7,0.26-1.52-0.24-1.72-1.05C47.28,39.29,47.91,38.22,48.75,38.13L48.75,38.13z M48.43,38.47
	c0.5-0.23,1.16-0.07,1.46,0.49c0.21,0.33,0.24,0.77,0.16,1.15c-0.16,0.67-0.81,1.12-1.39,0.96c-0.42-0.1-0.78-0.48-0.9-0.96
	C47.57,39.47,47.9,38.72,48.43,38.47L48.43,38.47z M48.8,39.17c0.34-0.09,0.7,0.29,0.64,0.69c-0.03,0.49-0.63,0.74-0.91,0.36
	C48.21,39.9,48.4,39.25,48.8,39.17L48.8,39.17z M69.32,31.86c0.74,0.04,1.5-0.07,2.22,0.13C70.8,31.99,70.06,31.9,69.32,31.86z"></path>
</svg></svg></g></svg>