<svg width="37" height="37" viewBox="0 0 37 37" fill="none" xmlns="http://www.w3.org/2000/svg">
<g id="alarm">
<g id="alarm_2">
<path d="M8.41559 3.08325L1.5415 9.27271L3.60466 11.5641L10.4787 5.37462L8.41559 3.08325Z" fill="black"/>
<path d="M16.9582 12.3333H20.0415V18.4999H24.6665V21.5833H16.9582V12.3333Z" fill="black"/>
<path fill-rule="evenodd" clip-rule="evenodd" d="M4.62484 18.4999C4.62484 10.837 10.8369 4.62492 18.4998 4.62492C26.1628 4.62492 32.3748 10.837 32.3748 18.4999C32.3748 26.1629 26.1628 32.3749 18.4998 32.3749C10.8369 32.3749 4.62484 26.1629 4.62484 18.4999ZM7.70817 18.4999C7.70817 12.5398 12.5398 7.70825 18.4998 7.70825C24.4599 7.70825 29.2915 12.5398 29.2915 18.4999C29.2915 24.46 24.4599 29.2916 18.4998 29.2916C12.5398 29.2916 7.70817 24.46 7.70817 18.4999Z" fill="black"/>
<path d="M28.5841 3.08325L35.4582 9.27271L33.395 11.5641L26.5209 5.37462L28.5841 3.08325Z" fill="black"/>
</g>
</g>
</svg>
