<svg width="38" height="38" viewBox="0 0 38 38" fill="none" xmlns="http://www.w3.org/2000/svg">
<g id="cloud">
<path id="Vector" d="M19 9.50004C23.1483 9.50004 26.7267 12.445 27.5342 16.5142L28.0092 18.8892L30.4317 19.0634C32.9017 19.2217 34.8333 21.2959 34.8333 23.75C34.8333 26.3625 32.6958 28.5 30.0833 28.5H9.5C6.00083 28.5 3.16667 25.6659 3.16667 22.1667C3.16667 18.9209 5.58917 16.2134 8.80333 15.8809L10.4975 15.7067L11.2892 14.2025C12.7933 11.305 15.7383 9.50004 19 9.50004ZM19 6.33337C14.4242 6.33337 10.45 8.93004 8.47083 12.73C3.705 13.2367 0 17.2742 0 22.1667C0 27.4075 4.25917 31.6667 9.5 31.6667H30.0833C34.4533 31.6667 38 28.12 38 23.75C38 19.57 34.7542 16.1817 30.6375 15.8967C29.5608 10.4342 24.7633 6.33337 19 6.33337Z" fill="black"/>
</g>
</svg>
