<svg width="64" height="54" viewBox="0 0 64 54" fill="none" xmlns="http://www.w3.org/2000/svg">
<path id="Vector" d="M20.8674 8.75596C24.2811 6.93914 28.1377 5.98417 32.0613 5.98417C35.9849 5.98417 39.8415 6.93914 43.2553 8.75596C43.6203 8.9546 44.0236 9.08344 44.4418 9.13507C44.8601 9.18669 45.2851 9.16007 45.6924 9.05676C46.0996 8.95343 46.4811 8.77545 46.8148 8.53306C47.1486 8.29066 47.428 7.98864 47.6369 7.64439C48.0539 6.95456 48.1635 6.13783 47.9418 5.37238C47.7201 4.60694 47.1851 3.95493 46.4535 3.55861C42.0633 1.22593 37.1052 0 32.0613 0C27.0174 0 22.0593 1.22593 17.6691 3.55861C16.9376 3.95493 16.4026 4.60694 16.1809 5.37238C15.9592 6.13783 16.0688 6.95456 16.4858 7.64439C16.6947 7.98864 16.9741 8.29066 17.3078 8.53306C17.6415 8.77545 18.023 8.95343 18.4303 9.05676C18.8376 9.16007 19.2626 9.18669 19.6808 9.13507C20.0991 9.08344 20.5024 8.9546 20.8674 8.75596ZM52.5942 24.5884C52.2619 23.8539 51.8772 23.1412 51.4428 22.4554C51.2233 22.117 50.9347 21.8228 50.5937 21.5897C50.2526 21.3566 49.8659 21.1891 49.4557 21.097C49.0454 21.0048 48.6198 20.9898 48.2034 21.0528C47.787 21.1158 47.3879 21.2555 47.0292 21.464C46.3106 21.8802 45.7963 22.5465 45.5986 23.3176C45.4009 24.0886 45.5358 24.9018 45.9738 25.5798C46.4682 26.3804 46.8754 27.2259 47.1891 28.1033C47.372 28.6196 47.7006 29.0795 48.1399 29.434C48.5793 29.7885 49.1129 30.0243 49.6838 30.1162C51.9093 30.4768 53.9281 31.5633 55.3848 33.1844C56.8415 34.8055 57.6427 36.8574 57.6475 38.9787C57.6475 41.3691 56.6366 43.6615 54.8372 45.3517C53.0379 47.0419 50.5974 47.9915 48.0527 47.9915H11.7843C10.4795 47.8029 9.26871 47.2396 8.31817 46.379C7.36762 45.5184 6.72385 44.4026 6.47517 43.1847C6.28306 42.3016 6.30493 41.3892 6.53915 40.5151C6.77337 39.641 7.21395 38.8276 7.82825 38.1352C8.44254 37.4428 9.21482 36.889 10.0879 36.515C10.9609 36.141 11.9123 35.9562 12.8717 35.9745C13.7199 35.9745 14.5334 35.658 15.1332 35.0946C15.733 34.5312 16.07 33.767 16.07 32.9702C16.0636 30.3421 16.8032 27.7599 18.2128 25.4896C18.4243 25.1468 18.5614 24.768 18.6164 24.3751C18.6714 23.9822 18.643 23.583 18.533 23.2004C18.423 22.8178 18.2336 22.4595 17.9755 22.146C17.7175 21.8325 17.3959 21.5701 17.0295 21.3738C16.2951 20.9822 15.4256 20.8792 14.6107 21.0875C13.7958 21.2957 13.1017 21.7982 12.6798 22.4854C11.182 24.8805 10.2241 27.5392 9.86534 30.2965C7.19683 30.9069 4.80832 32.3079 3.05302 34.2921C1.56009 35.9389 0.568033 37.9337 0.181513 40.0661C-0.205006 42.1984 0.0283444 44.3892 0.856945 46.4073C1.68554 48.4255 3.07867 50.1961 4.88935 51.5324C6.70003 52.8688 8.86113 53.7213 11.1446 54H11.5604H48.0527C51.8885 53.9901 55.5928 52.6853 58.4899 50.3237C61.3869 47.962 63.2837 44.7009 63.8344 41.135C64.385 37.5691 63.5527 33.9362 61.4893 30.8987C59.426 27.8612 56.269 25.6216 52.5942 24.5884ZM41.2404 17.949C41.2404 17.949 41.2404 17.949 41.2404 17.7687C41.4061 17.5862 41.5459 17.3843 41.6561 17.1679C41.9591 16.4267 41.9374 15.603 41.5958 14.8769C41.2542 14.1507 40.6205 13.581 39.8331 13.2924C38.0443 12.6685 36.171 12.2842 34.2681 12.1508C33.9483 12.1508 33.6285 12.1508 33.3087 12.1508C32.4463 12.0906 31.5804 12.0906 30.7181 12.1508C30.3878 12.1347 30.0569 12.1347 29.7266 12.1508C27.8238 12.2842 25.9504 12.6685 24.1616 13.2924C23.3974 13.6038 22.7927 14.183 22.4762 14.9068C22.1596 15.6305 22.1561 16.4417 22.4665 17.1679C22.5755 17.3688 22.704 17.5599 22.8503 17.7387C22.8397 17.8486 22.8397 17.9592 22.8503 18.0691C23.0619 18.4109 23.3433 18.71 23.6782 18.9494C24.0131 19.1889 24.3951 19.3638 24.8021 19.4643C25.2092 19.5648 25.6333 19.5888 26.0503 19.535C26.4673 19.4811 26.8688 19.3506 27.2319 19.1507C28.6986 18.3824 30.35 17.9792 32.0293 17.9792C33.7086 17.9792 35.3601 18.3824 36.8267 19.1507C37.1989 19.3505 37.61 19.4781 38.0357 19.5257C38.4613 19.5734 38.8928 19.5402 39.3046 19.4281C39.7163 19.316 40.0998 19.1273 40.4324 18.8732C40.7649 18.6191 41.0397 18.3048 41.2404 17.949ZM28.8631 26.9617C28.8631 27.5559 29.0506 28.1368 29.4021 28.6308C29.7535 29.1249 30.253 29.5099 30.8374 29.7373C31.4218 29.9647 32.0649 30.0242 32.6853 29.9083C33.3057 29.7923 33.8756 29.5062 34.3228 29.0861C34.7701 28.6659 35.0747 28.1306 35.1981 27.5478C35.3215 26.9651 35.2582 26.361 35.0161 25.8121C34.7741 25.2631 34.3641 24.7939 33.8382 24.4638C33.3122 24.1337 32.6939 23.9575 32.0613 23.9575C31.2131 23.9575 30.3996 24.274 29.7998 24.8374C29.2 25.4008 28.8631 26.165 28.8631 26.9617Z" fill="#525560"/>
</svg>
