<svg width="64" height="58" viewBox="0 0 64 58" fill="none" xmlns="http://www.w3.org/2000/svg">
<g id="work_outline">
<path id="Vector" d="M37.333 15.8531V11.0979H26.6663V15.8531H37.333ZM10.6663 20.6084V46.7622H53.333V20.6084H10.6663ZM53.333 15.8531C56.293 15.8531 58.6663 17.9692 58.6663 20.6084V46.7622C58.6663 49.4014 56.293 51.5175 53.333 51.5175H10.6663C7.70634 51.5175 5.33301 49.4014 5.33301 46.7622L5.35967 20.6084C5.35967 17.9692 7.70634 15.8531 10.6663 15.8531H21.333V11.0979C21.333 8.45874 23.7063 6.34265 26.6663 6.34265H37.333C40.293 6.34265 42.6663 8.45874 42.6663 11.0979V15.8531H53.333Z" fill="#525560"/>
</g>
</svg>
