<svg width="31" height="31" viewBox="0 0 31 31" fill="none" xmlns="http://www.w3.org/2000/svg">
<g id="check-r">
<g id="check-r_2">
<path d="M13.6036 21.8823L7.81818 16.0969L9.74666 14.1684L13.6036 18.0254L21.3175 10.3115L23.246 12.2399L13.6036 21.8823Z" fill="black"/>
<path fill-rule="evenodd" clip-rule="evenodd" d="M1 6.45455C1 3.44208 3.44208 1 6.45455 1H25.5455C28.5579 1 31 3.44208 31 6.45455V25.5455C31 28.5579 28.5579 31 25.5455 31H6.45455C3.44208 31 1 28.5579 1 25.5455V6.45455ZM6.45455 3.72727H25.5455C27.0517 3.72727 28.2727 4.94831 28.2727 6.45455V25.5455C28.2727 27.0517 27.0517 28.2727 25.5455 28.2727H6.45455C4.94831 28.2727 3.72727 27.0517 3.72727 25.5455V6.45455C3.72727 4.94831 4.94831 3.72727 6.45455 3.72727Z" fill="black"/>
</g>
</g>
</svg>
