<?xml version="1.0" encoding="utf-8"?>
<!-- Generator: Adobe Illustrator 27.9.0, SVG Export Plug-In . SVG Version: 6.00 Build 0)  -->
<svg version="1.1" id="Layer_1" xmlns="http://www.w3.org/2000/svg" xmlns:xlink="http://www.w3.org/1999/xlink" x="0px" y="0px"
	 viewBox="0 0 595.28 841.89" style="enable-background:new 0 0 595.28 841.89;" xml:space="preserve">
<style type="text/css">
	.st0{fill-rule:evenodd;clip-rule:evenodd;fill:#1A1F1C;}
	.st1{fill-rule:evenodd;clip-rule:evenodd;fill:#4F703E;}
</style>
<g>
	<path class="st0" d="M65.56,393.39l-15.1,34.06h6.41l2.78-6.24h18.17l2.84,6.24h6.53l-15.1-34.06H65.56L65.56,393.39z
		 M68.34,399.52h0.68l6.53,16.18H61.98L68.34,399.52L68.34,399.52z M121.3,407.64h-14.76v5.11l8.74,0.45v7.04
		c-1.05,0.69-2.24,1.24-3.56,1.65c-1.32,0.41-2.77,0.61-4.33,0.62c-1.66-0.01-3.19-0.29-4.6-0.86c-1.41-0.57-2.66-1.37-3.75-2.43
		c-1.12-1.06-1.98-2.34-2.59-3.83c-0.61-1.5-0.92-3.17-0.93-5.02c0.01-1.71,0.3-3.29,0.88-4.74c0.58-1.45,1.38-2.69,2.41-3.72
		c1.14-1.14,2.46-2.02,3.94-2.64c1.49-0.62,3.07-0.93,4.75-0.94c1.35-0.01,2.58,0.13,3.68,0.41c1.1,0.26,2.14,0.71,3.1,1.31
		c0.97,0.61,1.95,1.39,2.92,2.38l4.03-4.03c-1.33-1.34-2.7-2.42-4.09-3.25c-1.4-0.83-2.89-1.44-4.46-1.82
		c-1.58-0.38-3.31-0.57-5.2-0.56c-2.62,0.01-5.02,0.45-7.22,1.33c-2.19,0.88-4.1,2.12-5.72,3.72c-1.1,1.06-2.04,2.26-2.82,3.58
		c-0.78,1.32-1.37,2.74-1.78,4.25c-0.42,1.51-0.62,3.08-0.62,4.72c0.02,2.32,0.39,4.47,1.11,6.46c0.73,2,1.72,3.74,2.98,5.23
		c1.04,1.26,2.27,2.33,3.68,3.23c1.41,0.9,2.98,1.58,4.71,2.06c1.72,0.48,3.59,0.72,5.57,0.73c1.86,0,3.55-0.21,5.05-0.62
		c1.5-0.42,2.9-1.02,4.2-1.82l0.62,2.21l4.03-0.74V407.64L121.3,407.64z M156.73,405.88c-0.01-1.79-0.34-3.43-0.99-4.92
		c-0.65-1.49-1.55-2.8-2.7-3.94c-1.2-1.17-2.59-2.06-4.17-2.69c-1.57-0.62-3.25-0.94-5.02-0.95h-16.8v34.06h6.13v-9.25h10.45
		l5.51,9.25h6.93c-0.68-1.13-1.39-2.28-2.12-3.48c-0.72-1.19-1.45-2.39-2.18-3.58c-0.73-1.19-1.44-2.34-2.12-3.44
		c0.99-0.43,1.86-0.94,2.63-1.53c0.76-0.6,1.44-1.28,2.02-2.04c0.79-1.03,1.4-2.18,1.82-3.45
		C156.52,408.65,156.73,407.31,156.73,405.88L156.73,405.88z M133.17,398.96h10.5c1.07,0.01,2.05,0.22,2.97,0.63
		c0.92,0.41,1.67,0.97,2.25,1.69c0.54,0.58,0.96,1.27,1.26,2.06c0.29,0.8,0.44,1.65,0.44,2.54c0,0.86-0.15,1.7-0.46,2.54
		c-0.3,0.82-0.76,1.57-1.35,2.23c-0.55,0.64-1.25,1.13-2.09,1.5c-0.84,0.36-1.76,0.54-2.73,0.55h-10.79V398.96L133.17,398.96z
		 M178.07,392.77c-1.8,0.01-3.51,0.23-5.12,0.67c-1.61,0.44-3.1,1.06-4.47,1.87c-1.36,0.81-2.58,1.78-3.64,2.91
		c-1.51,1.6-2.69,3.44-3.51,5.53c-0.83,2.08-1.25,4.3-1.26,6.68c0.01,1.52,0.2,3,0.6,4.45c0.39,1.44,0.93,2.79,1.64,4.07
		c0.7,1.28,1.52,2.43,2.48,3.46c1.05,1.13,2.26,2.11,3.63,2.96c1.37,0.85,2.88,1.51,4.5,1.99c1.63,0.47,3.34,0.72,5.15,0.73
		c2.71-0.02,5.16-0.48,7.37-1.41c2.2-0.92,4.12-2.2,5.74-3.87c1.54-1.6,2.73-3.45,3.57-5.54c0.83-2.1,1.25-4.38,1.26-6.83
		c0-1.64-0.2-3.21-0.59-4.72c-0.4-1.51-0.96-2.94-1.71-4.28c-0.76-1.34-1.67-2.56-2.75-3.66c-1.57-1.57-3.45-2.8-5.63-3.67
		C183.15,393.22,180.72,392.78,178.07,392.77L178.07,392.77z M166.15,410.42c0.01-1.74,0.3-3.33,0.87-4.77
		c0.58-1.44,1.36-2.69,2.37-3.75c0.73-0.78,1.54-1.45,2.47-2c0.92-0.55,1.9-0.96,2.95-1.26c1.06-0.28,2.14-0.43,3.26-0.43
		c1.67,0.01,3.24,0.33,4.72,0.96c1.49,0.63,2.78,1.52,3.91,2.67c0.98,1.03,1.76,2.27,2.35,3.73c0.58,1.46,0.88,3.07,0.89,4.84
		c-0.01,1.74-0.3,3.33-0.86,4.77c-0.57,1.44-1.34,2.69-2.32,3.75c-1.09,1.17-2.38,2.08-3.87,2.72c-1.49,0.64-3.09,0.97-4.82,0.97
		c-1.74-0.01-3.36-0.34-4.85-1c-1.49-0.65-2.77-1.57-3.83-2.74c-1-1.06-1.79-2.31-2.37-3.74
		C166.46,413.71,166.16,412.14,166.15,410.42L166.15,410.42z M231.33,393.39l-15.1,34.06h6.41l2.78-6.24h18.17l2.84,6.24h6.53
		l-15.1-34.06H231.33L231.33,393.39z M234.11,399.52h0.68l6.53,16.18h-13.57L234.11,399.52L234.11,399.52z M256.59,402.59
		c0.01,1.3,0.19,2.43,0.56,3.39c0.36,0.97,0.85,1.78,1.49,2.46c0.86,0.87,1.93,1.57,3.21,2.08c1.28,0.52,2.69,0.91,4.23,1.15
		l7.55,1.31c0.97,0.17,1.9,0.4,2.77,0.69c0.87,0.28,1.62,0.64,2.22,1.07c0.41,0.34,0.73,0.74,0.98,1.2
		c0.25,0.47,0.37,1.01,0.38,1.64c0,0.65-0.12,1.23-0.36,1.74c-0.24,0.5-0.58,0.93-1,1.27c-1.01,0.73-2.22,1.23-3.65,1.52
		c-1.43,0.28-3.14,0.42-5.15,0.41c-1.92,0-3.86-0.2-5.81-0.61c-1.96-0.42-3.99-1.04-6.11-1.89l-1.87,5c1.15,0.54,2.27,1,3.34,1.39
		c1.07,0.39,2.15,0.7,3.24,0.95c1.08,0.26,2.22,0.43,3.42,0.55c1.2,0.12,2.51,0.18,3.92,0.18c1.5,0,3-0.09,4.48-0.28
		c1.48-0.19,2.87-0.5,4.18-0.93c1.32-0.43,2.48-0.98,3.49-1.68c0.79-0.53,1.47-1.17,2.05-1.93c0.59-0.76,1.04-1.62,1.36-2.59
		c0.33-0.97,0.49-2.06,0.5-3.25c-0.01-1.38-0.22-2.59-0.63-3.62c-0.43-1.02-1-1.9-1.75-2.63c-0.77-0.74-1.65-1.35-2.64-1.86
		c-0.98-0.5-2.04-0.93-3.16-1.25c-1.12-0.33-2.25-0.61-3.4-0.8l-6.93-1.25c-0.41-0.08-0.82-0.16-1.27-0.26
		c-0.44-0.09-0.88-0.23-1.31-0.39c-0.42-0.15-0.79-0.35-1.12-0.6c-0.41-0.26-0.72-0.55-0.96-0.88c-0.23-0.34-0.35-0.75-0.35-1.22
		c0-0.62,0.14-1.18,0.41-1.67c0.27-0.48,0.64-0.89,1.13-1.23c0.56-0.4,1.21-0.7,1.97-0.92c0.76-0.21,1.58-0.36,2.46-0.44
		c0.88-0.08,1.79-0.12,2.73-0.11c1.79-0.01,3.59,0.22,5.43,0.66c1.84,0.44,3.71,1.13,5.64,2.06l2.27-4.83
		c-1.67-0.85-3.29-1.52-4.83-2.02c-1.54-0.5-3.05-0.86-4.5-1.08c-1.46-0.21-2.9-0.32-4.34-0.31c-1.45,0-2.82,0.1-4.13,0.3
		c-1.31,0.21-2.52,0.52-3.63,0.94c-1.12,0.43-2.1,0.96-2.96,1.6c-1.07,0.77-1.91,1.73-2.55,2.9
		C256.93,399.66,256.61,401.03,256.59,402.59L256.59,402.59z M289.91,402.59c0.01,1.3,0.19,2.43,0.56,3.39
		c0.36,0.97,0.85,1.78,1.49,2.46c0.86,0.87,1.93,1.57,3.21,2.08c1.28,0.52,2.69,0.91,4.23,1.15l7.55,1.31
		c0.97,0.17,1.9,0.4,2.77,0.69c0.87,0.28,1.62,0.64,2.22,1.07c0.41,0.34,0.73,0.74,0.98,1.2c0.25,0.47,0.37,1.01,0.38,1.64
		c0,0.65-0.12,1.23-0.36,1.74c-0.24,0.5-0.58,0.93-1,1.27c-1.01,0.73-2.22,1.23-3.65,1.52c-1.43,0.28-3.14,0.42-5.15,0.41
		c-1.92,0-3.86-0.2-5.81-0.61c-1.96-0.42-3.99-1.04-6.11-1.89l-1.87,5c1.15,0.54,2.27,1,3.34,1.39c1.07,0.39,2.15,0.7,3.24,0.95
		c1.08,0.26,2.22,0.43,3.42,0.55c1.2,0.12,2.51,0.18,3.92,0.18c1.5,0,3-0.09,4.48-0.28c1.48-0.19,2.87-0.5,4.18-0.93
		c1.32-0.43,2.48-0.98,3.49-1.68c0.79-0.53,1.47-1.17,2.05-1.93c0.59-0.76,1.04-1.62,1.36-2.59c0.33-0.97,0.49-2.06,0.5-3.25
		c-0.01-1.38-0.22-2.59-0.63-3.62c-0.43-1.02-1-1.9-1.75-2.63c-0.77-0.74-1.65-1.35-2.64-1.86c-0.98-0.5-2.04-0.93-3.16-1.25
		c-1.12-0.33-2.25-0.61-3.4-0.8l-6.93-1.25c-0.41-0.08-0.82-0.16-1.27-0.26c-0.44-0.09-0.88-0.23-1.31-0.39
		c-0.42-0.15-0.79-0.35-1.12-0.6c-0.41-0.26-0.72-0.55-0.96-0.88c-0.23-0.34-0.35-0.75-0.35-1.22c0-0.62,0.14-1.18,0.41-1.67
		c0.27-0.48,0.64-0.89,1.13-1.23c0.56-0.4,1.21-0.7,1.97-0.92c0.76-0.21,1.58-0.36,2.46-0.44c0.88-0.08,1.79-0.12,2.73-0.11
		c1.79-0.01,3.59,0.22,5.43,0.66c1.84,0.44,3.71,1.13,5.64,2.06l2.27-4.83c-1.67-0.85-3.29-1.52-4.83-2.02
		c-1.54-0.5-3.05-0.86-4.5-1.08c-1.46-0.21-2.9-0.32-4.34-0.31c-1.45,0-2.82,0.1-4.13,0.3c-1.31,0.21-2.52,0.52-3.63,0.94
		c-1.12,0.43-2.1,0.96-2.96,1.6c-1.07,0.77-1.91,1.73-2.55,2.9C290.25,399.66,289.93,401.03,289.91,402.59L289.91,402.59z
		 M329.82,393.39h-5.96v34.06h5.96V393.39L329.82,393.39z M334.88,402.59c0.01,1.3,0.19,2.43,0.56,3.39
		c0.36,0.97,0.85,1.78,1.49,2.46c0.86,0.87,1.93,1.57,3.21,2.08c1.28,0.52,2.69,0.91,4.23,1.15l7.55,1.31
		c0.97,0.17,1.9,0.4,2.77,0.69c0.87,0.28,1.62,0.64,2.22,1.07c0.41,0.34,0.73,0.74,0.98,1.2c0.25,0.47,0.37,1.01,0.38,1.64
		c0,0.65-0.12,1.23-0.36,1.74c-0.24,0.5-0.58,0.93-1,1.27c-1.01,0.73-2.22,1.23-3.65,1.52c-1.43,0.28-3.14,0.42-5.15,0.41
		c-1.92,0-3.86-0.2-5.81-0.61c-1.96-0.42-3.99-1.04-6.11-1.89l-1.87,5c1.15,0.54,2.27,1,3.34,1.39c1.07,0.39,2.15,0.7,3.24,0.95
		c1.08,0.26,2.22,0.43,3.42,0.55c1.2,0.12,2.51,0.18,3.92,0.18c1.5,0,3-0.09,4.48-0.28c1.48-0.19,2.87-0.5,4.18-0.93
		c1.32-0.43,2.48-0.98,3.49-1.68c0.79-0.53,1.47-1.17,2.05-1.93c0.59-0.76,1.04-1.62,1.36-2.59c0.33-0.97,0.49-2.06,0.5-3.25
		c-0.01-1.38-0.22-2.59-0.63-3.62c-0.43-1.02-1-1.9-1.75-2.63c-0.77-0.74-1.65-1.35-2.64-1.86c-0.98-0.5-2.04-0.93-3.16-1.25
		c-1.12-0.33-2.25-0.61-3.4-0.8l-6.93-1.25c-0.41-0.08-0.82-0.16-1.27-0.26c-0.44-0.09-0.88-0.23-1.31-0.39
		c-0.42-0.15-0.79-0.35-1.12-0.6c-0.41-0.26-0.72-0.55-0.96-0.88c-0.23-0.34-0.35-0.75-0.35-1.22c0-0.62,0.14-1.18,0.41-1.67
		c0.27-0.48,0.64-0.89,1.13-1.23c0.56-0.4,1.21-0.7,1.97-0.92c0.76-0.21,1.58-0.36,2.46-0.44c0.88-0.08,1.79-0.12,2.73-0.11
		c1.79-0.01,3.59,0.22,5.43,0.66c1.84,0.44,3.71,1.13,5.64,2.06l2.27-4.83c-1.67-0.85-3.29-1.52-4.83-2.02
		c-1.54-0.5-3.05-0.86-4.5-1.08c-1.46-0.21-2.9-0.32-4.34-0.31c-1.45,0-2.82,0.1-4.13,0.3c-1.31,0.21-2.52,0.52-3.63,0.94
		c-1.12,0.43-2.1,0.96-2.96,1.6c-1.07,0.77-1.91,1.73-2.55,2.9C335.22,399.66,334.89,401.03,334.88,402.59L334.88,402.59z
		 M366.21,398.84h12.66v28.61h5.96v-28.61h12.66v-5.45h-31.28V398.84L366.21,398.84z M410.61,393.39h6.53l15.1,34.06h-6.53
		l-2.84-6.24H404.7l-2.78,6.24h-6.41L410.61,393.39L410.61,393.39z M413.39,399.52l-6.36,16.18h13.57l-6.53-16.18H413.39
		L413.39,399.52z M462.27,393.39v24.52l-20.15-24.52h-5.62v34.06h5.96v-24.47l20.04,24.47h5.62v-34.06H462.27L462.27,393.39z
		 M478.67,410.37c0-1.16,0.15-2.27,0.43-3.34c0.27-1.07,0.68-2.05,1.19-2.97c0.52-0.92,1.14-1.73,1.84-2.43
		c1.09-1.09,2.36-1.92,3.8-2.52c1.45-0.59,3-0.88,4.65-0.89c1.98,0,3.78,0.35,5.44,1.05c1.66,0.7,3.23,1.73,4.72,3.09l3.63-4.09
		c-1.34-1.25-2.7-2.28-4.1-3.09c-1.39-0.81-2.89-1.42-4.47-1.82c-1.59-0.4-3.33-0.6-5.23-0.6c-2.66,0.02-5.08,0.46-7.28,1.35
		c-2.2,0.89-4.09,2.12-5.66,3.7c-1.6,1.63-2.84,3.51-3.72,5.63c-0.88,2.13-1.32,4.44-1.33,6.92c0.01,2.54,0.46,4.87,1.35,7.01
		c0.89,2.14,2.16,4.02,3.81,5.65c1.63,1.58,3.51,2.81,5.67,3.7c2.16,0.89,4.54,1.33,7.16,1.35c1.9,0,3.64-0.19,5.23-0.59
		c1.58-0.4,3.08-1,4.47-1.84c1.4-0.83,2.76-1.89,4.1-3.2l-3.63-4.03c-1.49,1.34-3.07,2.37-4.72,3.07c-1.66,0.71-3.46,1.06-5.44,1.07
		c-1.66-0.01-3.24-0.33-4.72-0.96c-1.49-0.63-2.78-1.52-3.91-2.67c-1-1-1.81-2.22-2.39-3.67
		C478.99,413.82,478.68,412.19,478.67,410.37L478.67,410.37z M508.88,427.45h27.25v-5.51h-21.12v-9.59h18.17v-5.51h-18.17v-7.89
		h20.32v-5.56h-26.45V427.45z"/>
	<path class="st0" d="M58.19,254.83v106.32h44.3c7.68-0.06,14.74-1.33,21.23-3.87c6.5-2.51,12.14-6.02,16.86-10.48
		c3.31-3.22,6.14-6.82,8.51-10.9c2.33-4.05,4.13-8.42,5.38-13.11c1.24-4.73,1.89-9.63,1.89-14.8c-0.03-7.38-1.24-14.2-3.66-20.44
		c-2.42-6.23-5.88-11.69-10.34-16.42c-4.9-5.11-10.72-9.07-17.48-11.93c-6.73-2.86-14.2-4.31-22.38-4.37H58.19L58.19,254.83z
		 M101.78,272.02c5.58,0.03,10.57,0.95,14.97,2.72c4.4,1.77,8.15,4.25,11.25,7.38c3.13,3.19,5.49,6.97,7.12,11.34
		c1.62,4.34,2.45,9.18,2.45,14.53c0,5.4-0.83,10.31-2.48,14.71c-1.65,4.4-4.08,8.24-7.26,11.52c-3.04,3.04-6.76,5.46-11.16,7.24
		c-4.4,1.74-9.36,2.66-14.89,2.69H76.8v-72.12H101.78L101.78,272.02z M263.91,293.81c-0.03-5.58-1.06-10.72-3.1-15.36
		c-2.04-4.64-4.84-8.74-8.42-12.29c-3.75-3.66-8.09-6.44-13.02-8.39c-4.9-1.95-10.13-2.92-15.68-2.95h-52.45v106.32h19.14v-28.88
		h32.6l17.19,28.88h21.62c-2.13-3.51-4.34-7.12-6.61-10.87c-2.24-3.72-4.52-7.44-6.79-11.16c-2.27-3.72-4.49-7.29-6.61-10.75
		c3.1-1.33,5.82-2.92,8.21-4.78c2.36-1.86,4.49-3.99,6.32-6.38c2.48-3.22,4.37-6.79,5.67-10.78
		C263.26,302.47,263.91,298.27,263.91,293.81L263.91,293.81z M190.38,272.2h32.78c3.34,0.03,6.41,0.68,9.27,1.98
		c2.86,1.27,5.2,3.04,7.03,5.29c1.68,1.8,3.01,3.96,3.93,6.44c0.92,2.51,1.39,5.14,1.39,7.91c0,2.69-0.47,5.32-1.45,7.91
		c-0.95,2.57-2.36,4.9-4.22,6.97c-1.71,1.98-3.9,3.51-6.53,4.67c-2.63,1.12-5.49,1.68-8.54,1.71h-33.67V272.2L190.38,272.2z
		 M518,254.83v76.55l-62.9-76.55h-17.54v106.32h18.6v-76.37l62.55,76.37h17.54V254.83H518z"/>
	<path class="st0" d="M362.1,233.93c21.37,3.7,40.31,18.19,50.15,37.42c11.78,22.41,10.22,51.13-3.98,72.08
		c-10.68,16.29-28.32,27.8-47.54,30.98c-21.98,3.83-45.6-3.29-61.51-19c-15.73-14.78-23.74-37.07-21.58-58.5
		c-0.52,25.27,13.35,50.43,35.98,62.13c22.59,12.29,52.16,10.04,72.44-5.85c21.34-15.74,31.44-44.82,24.49-70.43
		C404.85,259.11,385.25,240.5,362.1,233.93L362.1,233.93z"/>
	<g>
		<path class="st1" d="M295.14,334.57c25.64,3.57,50.97,10.79,74.5,21.58C343.63,367.06,310.95,358.18,295.14,334.57z"/>
		<path class="st1" d="M286.39,317.57c36.68,0.03,74.17,5.31,108.17,19.47c-5.02,5.77-10.75,10.87-17.1,15.09
			c-28-11.69-57.21-20.24-87.16-25.07C288.97,323.9,287.67,320.72,286.39,317.57z"/>
		<path class="st1" d="M283.95,301.93c40.71-4.84,82.58-3.2,122.15,8.15c-0.69,7.49-4.04,14.34-7.41,20.98
			c-36.67-13.06-75.38-19.58-114.26-20.12C284.26,307.93,284.1,304.93,283.95,301.93z"/>
	</g>
	<path class="st0" d="M327.68,254.62c6.53-4.4,16.1-4.05,22.09,1.15c2.32,2.08,4,5.07,3.92,8.25c-10.47,0.01-20.94,0.02-31.42-0.01
		C322.17,260.17,324.58,256.68,327.68,254.62L327.68,254.62z M287.54,254.91c-0.07-0.14-0.15-0.28-0.22-0.42
		c0.01,0.15,0.02,0.44,0.02,0.59c-7.88-0.63-15.84-0.7-23.72,0.04c-1.8,0.28-3.79,0.22-5.33,1.32c0.82,0.8,2,0.89,3.07,1.1
		c9.19,1.17,18.52,1,27.72,0.11c0.04,2.42,0,4.85,0.03,7.27c0.09,0.97-1.18,1.56-0.78,2.59c0.36,1.3,1.9,1.19,2.97,1.15
		c0.39,0.55,0.75,1.23,1.45,1.42c12.86,2.85,25.78,5.51,38.64,8.42c0.52,2.21,2.17,3.93,4.24,4.81c0.02,3.03,0.01,6.07,0,9.1
		l4.58,1.62c-0.01-3.04,0.14-7.7,0.15-10.73c2.08-0.88,3.73-2.66,4.28-4.88c12.75-2.76,25.51-5.51,38.26-8.28
		c0.81-0.09,1.25-0.84,1.64-1.47c1.16-0.01,2.9,0.25,3.3-1.21c0.42-1.15-1.14-1.65-0.96-2.74c0.02-2.36-0.01-4.71,0.02-7.07
		c8.45,0.92,16.97,0.86,25.44,0.27c-0.09-0.05-0.18-0.1-0.26-0.15c1.87-0.18,4.09-0.06,5.6-1.33c-1.88-1.24-4.26-1.16-6.42-1.44
		c-2.4-0.01-4.79-0.25-7.18-0.37c-4.74-0.15-9.5,0.01-14.23,0.31c0.08,0.04,0.16,0.09,0.24,0.14c-0.47,0.01-0.94,0.01-1.41,0.03
		c-0.34-3.08-5.47-3.08-5.82-0.01c-4.22-0.39-8.46-0.51-12.7-0.52c-4.99,0.11-10.03,0.11-14.92,1.17c-0.43,0.17-1.24,0.25-1.21,0.84
		c0.93,0.79,2.24,0.78,3.37,1.01c5.7,0.74,11.46,0.81,17.2,0.72c3.35-0.16,6.72-0.19,10.02-0.78c0.03,2.64,0,5.28,0.01,7.93
		c-31.07,0.02-62.14-0.01-93.21,0.01c-0.11-2.64-0.03-5.28-0.04-7.93c6.93,0.96,13.97,0.92,20.94,0.61
		c2.99-0.24,6.04-0.23,8.93-1.12c0.37-0.08,0.63-0.37,0.9-0.62c-1.46-0.98-3.29-1.01-4.98-1.27c-7.98-0.81-16.05-0.72-24.03-0.05
		C292.9,252.18,287.69,251.89,287.54,254.91L287.54,254.91z M337.49,272.37c2.12-0.27,4.27,1.21,4.85,3.26c0.74,2.3-0.75,5-3.09,5.6
		c-2.27,0.73-4.93-0.67-5.58-2.97C332.71,275.65,334.77,272.62,337.49,272.37L337.49,272.37z M336.46,273.34
		c1.63-0.65,3.77-0.18,4.71,1.37c0.69,0.93,0.76,2.17,0.53,3.26c-0.5,1.89-2.61,3.17-4.51,2.71c-1.36-0.3-2.53-1.36-2.91-2.7
		C333.65,276.18,334.73,274.05,336.46,273.34L336.46,273.34z M337.65,275.31c1.1-0.24,2.27,0.81,2.06,1.94
		c-0.08,1.38-2.04,2.11-2.96,1.03C335.72,277.38,336.33,275.53,337.65,275.31L337.65,275.31z M404.06,254.64
		c2.39,0.12,4.84-0.2,7.18,0.37C408.84,255,406.46,254.75,404.06,254.64z"/>
</g>
</svg>
