<svg width="27" height="32" viewBox="0 0 27 32" fill="none" xmlns="http://www.w3.org/2000/svg">
<rect width="26.1877" height="32" rx="4" fill="#83D187"/>
<path d="M13.5 15.5L19.1384 19.4035C19.678 19.7771 20 20.3916 20 21.0479V23.5C20 23.7761 19.7761 24 19.5 24H7.5C7.22386 24 7 23.7761 7 23.5V21.0479C7 20.3916 7.32198 19.7771 7.86158 19.4035L13.5 15.5ZM13.5 15.5L19.1384 11.5965C19.678 11.2229 20 10.6084 20 9.95209V7.5C20 7.22386 19.7761 7 19.5 7H7.5C7.22386 7 7 7.22386 7 7.5V9.95209C7 10.6084 7.32198 11.2229 7.86158 11.5965L13.5 15.5Z" stroke="#DDFFDF" stroke-linecap="round" stroke-linejoin="round"/>
<path d="M18 24V22.9748C18 22.382 17.6509 21.8448 17.1092 21.6041L13.5609 20.0271C13.5221 20.0098 13.4779 20.0098 13.4391 20.0271L9.89079 21.6041C9.3491 21.8448 9 22.382 9 22.9748V24" stroke="#DDFFDF" stroke-linecap="round" stroke-linejoin="round"/>
</svg>
