<svg width="27" height="32" viewBox="0 0 27 32" fill="none" xmlns="http://www.w3.org/2000/svg">
<g id="Icon">
<rect id="BG" width="26.1877" height="32" rx="4" fill="#83D187"/>
<g id="Vector">
<path d="M21.4947 21.7413C21.2348 21.5206 21.0061 21.2496 20.8175 20.9389C20.366 20.312 19.7915 19.5347 18.7243 19.5347C17.6573 19.5347 17.1032 20.2869 16.6312 20.964C16.1592 21.6411 15.8514 22.0423 15.1537 22.0423C14.456 22.0423 14.1072 21.5658 13.6762 20.964C13.2453 20.3622 12.6707 19.5347 11.5831 19.5347C10.4955 19.5347 9.96196 20.2869 9.48996 20.964C9.01799 21.6411 8.71017 22.0423 8.01247 22.0423C7.31477 22.0423 6.9659 21.5658 6.53498 20.964C6.24204 20.4913 5.87161 20.0984 5.44736 19.8105C5.24335 19.6859 4.99531 19.7869 4.8933 20.0362C4.7913 20.2855 4.87398 20.5886 5.07799 20.7132C5.40019 20.9505 5.68511 21.2563 5.91933 21.616C6.3913 22.293 6.94536 23.0453 8.01247 23.0453C9.07958 23.0453 9.6336 22.293 10.1056 21.616C10.5776 20.9389 10.8854 20.5377 11.5831 20.5377C12.2808 20.5377 12.6297 21.0142 13.0606 21.616C13.4915 22.2178 14.0661 23.0453 15.1537 23.0453C16.2413 23.0453 16.7749 22.293 17.2469 21.616C17.7188 20.9389 18.0266 20.5377 18.7243 20.5377C19.422 20.5377 19.7709 21.0142 20.2018 21.616C20.441 21.9912 20.7246 22.3208 21.0432 22.5939C21.2358 22.7462 21.4931 22.6789 21.6178 22.4434C21.7425 22.208 21.6874 21.8937 21.4947 21.7413Z" fill="#DDFFDF"/>
<path d="M21.4947 17.98C21.2348 17.7593 21.0061 17.4882 20.8175 17.1776C20.366 16.5507 19.7915 15.7734 18.7243 15.7734C17.6573 15.7734 17.1032 16.5256 16.6312 17.2027C16.1592 17.8798 15.8514 18.281 15.1537 18.281C14.456 18.281 14.1072 17.8045 13.6762 17.2027C13.2453 16.6009 12.6707 15.7734 11.5831 15.7734C10.4955 15.7734 9.96196 16.5256 9.48996 17.2027C9.01799 17.8798 8.71017 18.281 8.01247 18.281C7.31477 18.281 6.9659 17.8045 6.53498 17.2027C6.24204 16.73 5.87161 16.3371 5.44736 16.0492C5.24335 15.9246 4.99531 16.0256 4.8933 16.2749C4.7913 16.5242 4.87398 16.8273 5.07799 16.9519C5.40019 17.1892 5.68511 17.495 5.91933 17.8546C6.3913 18.5317 6.94536 19.284 8.01247 19.284C9.07958 19.284 9.6336 18.5317 10.1056 17.8546C10.5776 17.1776 10.8854 16.7764 11.5831 16.7764C12.2808 16.7764 12.6297 17.2529 13.0606 17.8546C13.4915 18.4565 14.0661 19.284 15.1537 19.284C16.2413 19.284 16.7749 18.5317 17.2469 17.8546C17.7188 17.1776 18.0266 16.7764 18.7243 16.7764C19.422 16.7764 19.7709 17.2529 20.2018 17.8546C20.441 18.2299 20.7246 18.5595 21.0432 18.8326C21.2358 18.9849 21.4931 18.9176 21.6178 18.6821C21.7425 18.4467 21.6874 18.1324 21.4947 17.98Z" fill="#DDFFDF"/>
<path d="M21.4947 13.9678C21.2348 13.7471 21.0061 13.476 20.8175 13.1654C20.366 12.5385 19.7915 11.7612 18.7243 11.7612C17.6573 11.7612 17.1032 12.5134 16.6312 13.1905C16.1592 13.8676 15.8514 14.2688 15.1537 14.2688C14.456 14.2688 14.1072 13.7923 13.6762 13.1905C13.2453 12.5887 12.6707 11.7612 11.5831 11.7612C10.4955 11.7612 9.96196 12.5134 9.48996 13.1905C9.01799 13.8676 8.71017 14.2688 8.01247 14.2688C7.31477 14.2688 6.9659 13.7923 6.53498 13.1905C6.24204 12.7178 5.87161 12.3249 5.44736 12.037C5.24335 11.9124 4.99531 12.0134 4.8933 12.2627C4.7913 12.512 4.87398 12.8151 5.07799 12.9397C5.40019 13.177 5.68511 13.4828 5.91933 13.8425C6.3913 14.5195 6.94536 15.2718 8.01247 15.2718C9.07958 15.2718 9.6336 14.5195 10.1056 13.8425C10.5776 13.1654 10.8854 12.7642 11.5831 12.7642C12.2808 12.7642 12.6297 13.2407 13.0606 13.8425C13.4915 14.4442 14.0661 15.2718 15.1537 15.2718C16.2413 15.2718 16.7749 14.5195 17.2469 13.8425C17.7189 13.1654 18.0266 12.7642 18.7243 12.7642C19.422 12.7642 19.7709 13.2407 20.2018 13.8425C20.441 14.2177 20.7246 14.5473 21.0432 14.8204C21.2358 14.9727 21.4931 14.9054 21.6178 14.6699C21.7425 14.4345 21.6874 14.1202 21.4947 13.9678Z" fill="#DDFFDF"/>
<path d="M5.07815 9.17854C5.40035 9.41583 5.68527 9.72157 5.91949 10.0813C6.39146 10.7583 6.94552 11.5106 8.01263 11.5106C9.07974 11.5106 9.63376 10.7583 10.1058 10.0813C10.5777 9.40422 10.8856 9.00302 11.5833 9.00302C12.281 9.00302 12.6298 9.47948 13.0607 10.0813C13.4917 10.6831 14.0663 11.5106 15.1539 11.5106C16.2415 11.5106 16.775 10.7583 17.247 10.0813C17.719 9.40422 18.0268 9.00302 18.7245 9.00302C19.4222 9.00302 19.7711 9.47948 20.202 10.0813C20.4412 10.4565 20.7247 10.7861 21.0433 11.0592C21.236 11.2116 21.4933 11.1442 21.6179 10.9088C21.7426 10.6733 21.6875 10.359 21.4948 10.2066C21.2349 9.98588 21.0062 9.71485 20.8176 9.40422C20.3661 8.77734 19.7916 8 18.7245 8C17.6574 8 17.1033 8.75224 16.6313 9.42932C16.1594 10.1064 15.8515 10.5076 15.1538 10.5076C14.4561 10.5076 14.1073 10.0311 13.6764 9.42932C13.2454 8.8275 12.6708 8 11.5832 8C10.4956 8 9.96209 8.75224 9.49008 9.42932C9.01811 10.1064 8.71029 10.5076 8.01259 10.5076C7.31489 10.5076 6.9661 10.0311 6.53514 9.42927C6.2422 8.95651 5.87177 8.56367 5.44752 8.27579C5.24351 8.15114 4.99547 8.25217 4.89346 8.50146C4.79146 8.75075 4.87418 9.0539 5.07815 9.17854Z" fill="#DDFFDF"/>
</g>
</g>
</svg>
