<svg width="67" height="32" viewBox="0 0 67 32" fill="none" xmlns="http://www.w3.org/2000/svg">
<g id="Frame 6">
<g id="Group 3">
<path id="Ellipse 6" d="M17 13C17 8.58172 20.5817 5 25 5C29.4183 5 33 8.58172 33 13C33 17.4183 29.4183 21 25 21C20.5817 21 17 17.4183 17 13Z" fill="#56C73A"/>
<circle id="Ellipse 8" cx="59" cy="13" r="8" transform="rotate(-180 59 13)" fill="#56C73A"/>
<circle id="Ellipse 7" cx="8" cy="13" r="8" transform="rotate(-180 8 13)" fill="#56C73A"/>
<path id="Ellipse 9" d="M34 13C34 8.58172 37.5817 5 42 5C46.4183 5 50 8.58172 50 13C50 17.4183 46.4183 21 42 21C37.5817 21 34 17.4183 34 13Z" fill="#56C73A"/>
</g>
</g>
</svg>
