<svg width="64" height="64" viewBox="0 0 64 64" fill="none" xmlns="http://www.w3.org/2000/svg">
<g id="pin_drop">
<g id="Vector">
<path d="M31.9997 10.6667C37.1463 10.6667 45.333 14.4 45.333 24.4C45.333 30.16 40.7463 36.8533 31.9997 43.92C23.253 36.8533 18.6663 30.1333 18.6663 24.4C18.6663 14.4 26.853 10.6667 31.9997 10.6667ZM31.9997 5.33334C23.2797 5.33334 13.333 11.8933 13.333 24.4C13.333 32.72 19.5463 41.4933 31.9997 50.6667C44.453 41.4933 50.6663 32.72 50.6663 24.4C50.6663 11.8933 40.7197 5.33334 31.9997 5.33334Z" fill="#525560"/>
<path d="M31.9997 18.6667C29.0663 18.6667 26.6663 21.0667 26.6663 24C26.6663 26.9333 29.0663 29.3333 31.9997 29.3333C33.4142 29.3333 34.7707 28.7714 35.7709 27.7712C36.7711 26.7711 37.333 25.4145 37.333 24C37.333 22.5855 36.7711 21.229 35.7709 20.2288C34.7707 19.2286 33.4142 18.6667 31.9997 18.6667ZM13.333 53.3333H50.6663V58.6667H13.333V53.3333Z" fill="#525560"/>
</g>
</g>
</svg>
