<svg width="40" height="37" viewBox="0 0 40 37" fill="none" xmlns="http://www.w3.org/2000/svg">
<path id="Vector" opacity="0.3" fill-rule="evenodd" clip-rule="evenodd" d="M29.7778 0C25.5446 0 22.1063 3.69906 22.1063 8.2608C22.1063 12.8197 25.5446 16.5216 29.7778 16.5216C37.0505 16.5216 32.8361 30.8667 23.6638 32.3609C23.231 32.4296 22.836 32.6582 22.5504 33.0052C22.2647 33.3522 22.1072 33.7947 22.1063 34.2527C22.1063 35.4256 22.2222 36.2411 24.2189 36.1755C40.8902 33.531 46.8183 0.00281918 29.7778 0.00281918V0ZM7.67416 0C3.43559 0 0 3.69624 0 8.2608C0 12.8169 3.43559 16.516 7.67416 16.516C14.9441 16.516 10.7298 30.8667 1.55747 32.3609C1.12515 32.4295 0.730538 32.6577 0.444914 33.0041C0.159289 33.3505 0.00148353 33.7924 0 34.2499C0 35.4228 1.00238 36.3503 2.10985 36.1727C18.7866 33.5282 24.7147 0 7.67416 0Z" fill="#56C73A"/>
</svg>
