<svg width="32" height="33" viewBox="0 0 32 33" fill="none" xmlns="http://www.w3.org/2000/svg">
<g id="Icon / Pin">
<path id="Vector" d="M16.0002 3.12744C10.6749 3.12744 6.34253 7.45984 6.34253 12.785C6.34253 19.3938 14.9851 29.0958 15.3531 29.5056C15.6987 29.8905 16.3022 29.8898 16.6473 29.5056C17.0151 29.0958 25.6578 19.3938 25.6578 12.785C25.6577 7.45984 21.3254 3.12744 16.0002 3.12744ZM16.0002 17.6441C13.3209 17.6441 11.1412 15.4644 11.1412 12.785C11.1412 10.1058 13.321 7.92608 16.0002 7.92608C18.6794 7.92608 20.8591 10.1058 20.8591 12.7851C20.8591 15.4644 18.6794 17.6441 16.0002 17.6441Z" fill="#56C73A"/>
</g>
</svg>
