<svg width="64" height="64" viewBox="0 0 64 64" fill="none" xmlns="http://www.w3.org/2000/svg">
<g id="how_to_reg">
<path id="Vector" d="M28.0003 31.3333C33.8937 31.3333 38.667 26.56 38.667 20.6667C38.667 14.7733 33.8937 10 28.0003 10C22.107 10 17.3337 14.7733 17.3337 20.6667C17.3337 26.56 22.107 31.3333 28.0003 31.3333ZM28.0003 15.3333C30.9337 15.3333 33.3337 17.7333 33.3337 20.6667C33.3337 23.6 30.9337 26 28.0003 26C25.067 26 22.667 23.6 22.667 20.6667C22.667 17.7333 25.067 15.3333 28.0003 15.3333ZM12.0003 47.3333C12.5337 45.6533 18.8537 42.8533 25.227 42.16L30.667 36.8267C29.627 36.72 28.8537 36.6667 28.0003 36.6667C20.8803 36.6667 6.66699 40.24 6.66699 47.3333V52.6667H30.667L25.3337 47.3333H12.0003ZM53.6003 32.6667L39.9203 46.4533L34.4003 40.9067L30.667 44.6667L39.9203 54L57.3337 36.4267L53.6003 32.6667Z" fill="#4B4B4B"/>
</g>
</svg>
