<svg width="44" height="45" viewBox="0 0 44 45" fill="none" xmlns="http://www.w3.org/2000/svg">
<g id="Icon">
<circle id="Ellipse 1" cx="21.7676" cy="22.4779" r="21.7676" fill="#4EAF4E"/>
<path id="Vector" d="M18.9082 22.6176H24.4252" stroke="#0D0D0D" stroke-linecap="round" stroke-linejoin="round"/>
<path id="Vector_2" d="M18.9082 25.376H24.4252" stroke="#0D0D0D" stroke-linecap="round" stroke-linejoin="round"/>
<path id="Vector_3" d="M15.4601 15.0317H27.8733C28.0562 15.0317 28.2316 15.1044 28.3609 15.2337C28.4903 15.3631 28.5629 15.5385 28.5629 15.7214V28.8242C28.5629 29.3729 28.345 29.8991 27.957 30.2871C27.569 30.6751 27.0428 30.893 26.4941 30.893H16.8394C16.2907 30.893 15.7645 30.6751 15.3765 30.2871C14.9885 29.8991 14.7705 29.3729 14.7705 28.8242V15.7214C14.7705 15.5385 14.8432 15.3631 14.9725 15.2337C15.1018 15.1044 15.2772 15.0317 15.4601 15.0317V15.0317Z" stroke="#0D0D0D" stroke-linecap="round" stroke-linejoin="round"/>
<path id="Vector_4" d="M17.5283 13.6525V16.4109" stroke="#0D0D0D" stroke-linecap="round" stroke-linejoin="round"/>
<path id="Vector_5" d="M21.666 13.6525V16.4109" stroke="#0D0D0D" stroke-linecap="round" stroke-linejoin="round"/>
<path id="Vector_6" d="M25.8037 13.6525V16.4109" stroke="#0D0D0D" stroke-linecap="round" stroke-linejoin="round"/>
</g>
</svg>
