<svg width="32" height="32" viewBox="0 0 32 32" fill="none" xmlns="http://www.w3.org/2000/svg">
<g id="Frame 11">
<path id="Vector" fill-rule="evenodd" clip-rule="evenodd" d="M11.57 4.6702C12.7855 4.61424 13.173 4.60181 16.2692 4.60181C19.3654 4.60181 19.7529 4.61528 20.9674 4.6702C22.1818 4.72511 23.0107 4.91888 23.7361 5.1997C24.4956 5.48672 25.1847 5.9354 25.7546 6.51567C26.3349 7.08455 26.7825 7.77259 27.0685 8.53316C27.3504 9.2585 27.5431 10.0875 27.599 11.2998C27.655 12.5174 27.6674 12.9049 27.6674 16C27.6674 19.0962 27.654 19.4838 27.599 20.6992C27.5441 21.9116 27.3504 22.7405 27.0685 23.4659C26.7825 24.2266 26.3341 24.9157 25.7546 25.4854C25.1847 26.0657 24.4956 26.5134 23.7361 26.7993C23.0107 27.0812 22.1818 27.2739 20.9694 27.3299C19.7529 27.3858 19.3654 27.3983 16.2692 27.3983C13.173 27.3983 12.7855 27.3848 11.57 27.3299C10.3577 27.275 9.5287 27.0812 8.80336 26.7993C8.04271 26.5133 7.35353 26.0649 6.7838 25.4854C6.20392 24.9162 5.75518 24.2274 5.46886 23.4669C5.18805 22.7416 4.99532 21.9126 4.93936 20.7003C4.88341 19.4827 4.87097 19.0952 4.87097 16C4.87097 12.9039 4.88444 12.5163 4.93936 11.3019C4.99428 10.0875 5.18805 9.2585 5.46886 8.53316C5.7556 7.77267 6.20469 7.08384 6.78484 6.51464C7.35376 5.93488 8.04224 5.48615 8.80233 5.1997C9.52767 4.91888 10.3577 4.72615 11.57 4.6702ZM20.8751 6.72188C19.6731 6.66696 19.3125 6.65556 16.2692 6.65556C13.2259 6.65556 12.8653 6.66696 11.6633 6.72188C10.5514 6.77265 9.94837 6.95813 9.54632 7.1146C9.01475 7.32184 8.63446 7.56742 8.23552 7.96636C7.85736 8.33426 7.56632 8.78214 7.38376 9.27715C7.2273 9.6792 7.04182 10.2823 6.99104 11.3941C6.93612 12.5961 6.92473 12.9567 6.92473 16C6.92473 19.0434 6.93612 19.404 6.99104 20.606C7.04182 21.7178 7.2273 22.3209 7.38376 22.7229C7.56614 23.2172 7.85731 23.6659 8.23552 24.0337C8.60338 24.4119 9.05205 24.7031 9.54632 24.8855C9.94837 25.0419 10.5514 25.2274 11.6633 25.2782C12.8653 25.3331 13.2248 25.3445 16.2692 25.3445C19.3136 25.3445 19.6731 25.3331 20.8751 25.2782C21.987 25.2274 22.59 25.0419 22.9921 24.8855C23.5237 24.6782 23.9039 24.4327 24.3029 24.0337C24.6811 23.6659 24.9723 23.2172 25.1546 22.7229C25.3111 22.3209 25.4966 21.7178 25.5474 20.606C25.6023 19.404 25.6137 19.0434 25.6137 16C25.6137 12.9567 25.6023 12.5961 25.5474 11.3941C25.4966 10.2823 25.3111 9.6792 25.1546 9.27715C24.9474 8.74558 24.7018 8.3653 24.3029 7.96636C23.935 7.58822 23.4871 7.29719 22.9921 7.1146C22.59 6.95813 21.987 6.77265 20.8751 6.72188ZM14.8133 19.5138C15.6264 19.8523 16.5318 19.8979 17.3748 19.643C18.2178 19.3881 18.9461 18.8485 19.4354 18.1162C19.9248 17.384 20.1447 16.5045 20.0576 15.6282C19.9706 14.7518 19.582 13.9328 18.9582 13.3111C18.5605 12.9137 18.0797 12.6094 17.5503 12.4201C17.0209 12.2308 16.4562 12.1613 15.8967 12.2165C15.3372 12.2716 14.7969 12.4502 14.3147 12.7392C13.8325 13.0283 13.4204 13.4207 13.1081 13.8881C12.7957 14.3555 12.5909 14.8864 12.5083 15.4425C12.4258 15.9986 12.4675 16.5661 12.6306 17.1041C12.7937 17.6422 13.0741 18.1373 13.4515 18.554C13.8289 18.9707 14.294 19.2985 14.8133 19.5138ZM12.1265 11.8573C12.6705 11.3133 13.3164 10.8817 14.0272 10.5873C14.738 10.2929 15.4998 10.1413 16.2692 10.1413C17.0386 10.1413 17.8004 10.2929 18.5112 10.5873C19.2221 10.8817 19.8679 11.3133 20.4119 11.8573C20.956 12.4013 21.3875 13.0472 21.682 13.758C21.9764 14.4688 22.1279 15.2307 22.1279 16C22.1279 16.7694 21.9764 17.5313 21.682 18.2421C21.3875 18.9529 20.956 19.5987 20.4119 20.1428C19.3132 21.2415 17.823 21.8588 16.2692 21.8588C14.7154 21.8588 13.2252 21.2415 12.1265 20.1428C11.0277 19.0441 10.4105 17.5539 10.4105 16C10.4105 14.4462 11.0277 12.956 12.1265 11.8573ZM23.4273 11.0138C23.5621 10.8867 23.67 10.7337 23.7447 10.5641C23.8193 10.3945 23.8592 10.2116 23.8619 10.0263C23.8646 9.84094 23.8301 9.65697 23.7604 9.48523C23.6907 9.3135 23.5873 9.15748 23.4563 9.02643C23.3252 8.89538 23.1692 8.79196 22.9975 8.72229C22.8257 8.65261 22.6418 8.6181 22.4564 8.62081C22.2711 8.62351 22.0882 8.66336 21.9186 8.73801C21.749 8.81266 21.596 8.92059 21.4689 9.05541C21.2215 9.3176 21.0861 9.66586 21.0914 10.0263C21.0966 10.3867 21.2421 10.7308 21.497 10.9857C21.7519 11.2406 22.096 11.3861 22.4564 11.3913C22.8168 11.3966 23.1651 11.2612 23.4273 11.0138Z" fill="white"/>
</g>
</svg>
