<svg width="40" height="39" viewBox="0 0 40 39" fill="none" xmlns="http://www.w3.org/2000/svg">
<path fill-rule="evenodd" clip-rule="evenodd" d="M20 38.1448C31.0457 38.1448 40 29.6058 40 19.0724C40 8.53899 31.0457 0 20 0C8.9543 0 0 8.53899 0 19.0724C0 29.6058 8.9543 38.1448 20 38.1448Z" fill="#DCFCE7"/>
<path d="M15.3756 24V22.632C16.1916 21.984 16.9716 21.33 17.7156 20.67C18.4596 20.01 19.1196 19.362 19.6956 18.726C20.2836 18.078 20.7456 17.448 21.0816 16.836C21.4176 16.212 21.5856 15.612 21.5856 15.036C21.5856 14.652 21.5196 14.292 21.3876 13.956C21.2556 13.608 21.0396 13.332 20.7396 13.128C20.4396 12.912 20.0376 12.804 19.5336 12.804C18.7776 12.804 18.2076 13.044 17.8236 13.524C17.4516 14.004 17.2716 14.58 17.2836 15.252H15.4296C15.4416 14.364 15.6276 13.62 15.9876 13.02C16.3596 12.42 16.8516 11.964 17.4636 11.652C18.0876 11.34 18.7896 11.184 19.5696 11.184C20.7576 11.184 21.7056 11.52 22.4136 12.192C23.1336 12.852 23.4936 13.776 23.4936 14.964C23.4936 15.672 23.3196 16.374 22.9716 17.07C22.6356 17.766 22.1916 18.438 21.6396 19.086C21.0996 19.722 20.5176 20.322 19.8936 20.886C19.2696 21.45 18.6756 21.96 18.1116 22.416H23.8716V24H15.3756Z" fill="#151439" fill-opacity="0.4"/>
</svg>
