<svg width="40" height="39" viewBox="0 0 40 39" fill="none" xmlns="http://www.w3.org/2000/svg">
<path fill-rule="evenodd" clip-rule="evenodd" d="M20 38.1448C31.0457 38.1448 40 29.6058 40 19.0724C40 8.539 31.0457 0 20 0C8.9543 0 0 8.539 0 19.0724C0 29.6058 8.9543 38.1448 20 38.1448Z" fill="#DCFCE7"/>
<path d="M19.4838 24.216C18.6678 24.216 17.9238 24.072 17.2518 23.784C16.5918 23.484 16.0638 23.034 15.6678 22.434C15.2718 21.834 15.0618 21.084 15.0378 20.184H16.9278C16.9518 20.856 17.1798 21.426 17.6118 21.894C18.0558 22.35 18.6798 22.578 19.4838 22.578C20.2518 22.578 20.8398 22.368 21.2478 21.948C21.6558 21.516 21.8598 20.982 21.8598 20.346C21.8598 19.578 21.5838 19.008 21.0318 18.636C20.4918 18.264 19.8258 18.078 19.0338 18.078H18.0978V16.494H19.0518C19.7598 16.494 20.3298 16.326 20.7618 15.99C21.2058 15.654 21.4278 15.18 21.4278 14.568C21.4278 14.052 21.2538 13.632 20.9058 13.308C20.5698 12.984 20.0898 12.822 19.4658 12.822C18.8178 12.822 18.3078 13.014 17.9358 13.398C17.5638 13.77 17.3598 14.238 17.3238 14.802H15.4338C15.4578 14.07 15.6378 13.434 15.9738 12.894C16.3218 12.354 16.7958 11.934 17.3958 11.634C17.9958 11.334 18.6858 11.184 19.4658 11.184C20.3058 11.184 21.0078 11.334 21.5718 11.634C22.1478 11.922 22.5798 12.318 22.8678 12.822C23.1678 13.314 23.3178 13.854 23.3178 14.442C23.3178 15.114 23.1318 15.702 22.7598 16.206C22.3878 16.71 21.8898 17.046 21.2658 17.214C21.9858 17.37 22.5798 17.724 23.0478 18.276C23.5158 18.816 23.7498 19.518 23.7498 20.382C23.7498 21.078 23.5878 21.72 23.2638 22.308C22.9398 22.884 22.4598 23.346 21.8238 23.694C21.1878 24.042 20.4078 24.216 19.4838 24.216Z" fill="#151439" fill-opacity="0.4"/>
</svg>
