<svg width="32" height="33" viewBox="0 0 32 33" fill="none" xmlns="http://www.w3.org/2000/svg">
<g id="Icon / Phone">
<path id="Vector" d="M22.6667 28.2311C20.4617 28.2291 18.2911 27.6842 16.3467 26.6444L15.7467 26.3111C11.601 24.0822 8.20225 20.6834 5.97333 16.5378L5.64 15.9378C4.57309 13.9823 4.00951 11.792 4 9.5644V8.67107C3.99944 7.96035 4.28261 7.2788 4.78667 6.77774L7.04 4.5244C7.25884 4.30387 7.56775 4.19758 7.87595 4.23675C8.18415 4.27592 8.45664 4.45614 8.61333 4.7244L11.6133 9.87107C11.9167 10.3949 11.8291 11.0574 11.4 11.4844L8.88 14.0044C8.67072 14.2114 8.62196 14.5311 8.76 14.7911L9.22667 15.6711C10.9027 18.7756 13.4524 21.3207 16.56 22.9911L17.44 23.4711C17.7 23.6091 18.0197 23.5603 18.2267 23.3511L20.7467 20.8311C21.1736 20.402 21.8361 20.3144 22.36 20.6178L27.5067 23.6178C27.7749 23.7744 27.9552 24.047 27.9943 24.3551C28.0335 24.6634 27.9272 24.9723 27.7067 25.1911L25.4533 27.4444C24.9523 27.9484 24.2707 28.2316 23.56 28.2311H22.6667Z" fill="#56C73A"/>
</g>
</svg>
