<svg width="60" height="60" viewBox="0 0 60 60" fill="none" xmlns="http://www.w3.org/2000/svg">
<g id="Water Drop / 24 / Outline">
<path id="Vector" d="M31.4 5.42502C30.9866 5.14558 30.499 4.99625 30 4.99625C29.501 4.99625 29.0134 5.14558 28.6 5.42502C27.85 5.92502 10.625 17.925 10.625 35.625C10.625 40.7636 12.6663 45.6917 16.2998 49.3252C19.9333 52.9587 24.8614 55 30 55C35.1386 55 40.0667 52.9587 43.7002 49.3252C47.3337 45.6917 49.375 40.7636 49.375 35.625C49.375 17.625 32.125 5.90001 31.4 5.42502ZM30 50C26.1895 49.9934 22.537 48.4768 19.8426 45.7824C17.1482 43.088 15.6316 39.4355 15.625 35.625C15.625 23.125 26.15 13.7 30 10.625C33.875 13.65 44.375 23.125 44.375 35.625C44.3684 39.4355 42.8518 43.088 40.1574 45.7824C37.463 48.4768 33.8105 49.9934 30 50Z" fill="#525560"/>
</g>
</svg>
