<svg width="64" height="65" viewBox="0 0 64 65" fill="none" xmlns="http://www.w3.org/2000/svg">
<g id="anchor-round">
<path id="Vector" d="M56 51.1492C56 37.8944 45.2548 24.4825 32 24.4825C18.7452 24.4825 8 37.8944 8 51.1492" stroke="#525560" stroke-width="5" stroke-linecap="round" stroke-linejoin="round"/>
<path id="Vector_2" d="M26.6663 19.1492H13.333" stroke="#525560" stroke-width="4" stroke-linecap="round" stroke-linejoin="round"/>
<path id="Vector_3" d="M50.6663 19.1492H37.333" stroke="#525560" stroke-width="4" stroke-linecap="round" stroke-linejoin="round"/>
<path id="Vector_4" d="M9.33301 23.1492C11.5421 23.1492 13.333 21.3584 13.333 19.1492C13.333 16.9401 11.5421 15.1492 9.33301 15.1492C7.12387 15.1492 5.33301 16.9401 5.33301 19.1492C5.33301 21.3584 7.12387 23.1492 9.33301 23.1492Z" stroke="#525560" stroke-width="5" stroke-linecap="round" stroke-linejoin="round"/>
<path id="Vector_5" d="M54.667 23.1492C56.8761 23.1492 58.667 21.3584 58.667 19.1492C58.667 16.9401 56.8761 15.1492 54.667 15.1492C52.4579 15.1492 50.667 16.9401 50.667 19.1492C50.667 21.3584 52.4579 23.1492 54.667 23.1492Z" stroke="#525560" stroke-width="5" stroke-linecap="round" stroke-linejoin="round"/>
<path id="Vector_6" d="M32.0003 24.4825C34.9458 24.4825 37.3337 22.0947 37.3337 19.1492C37.3337 16.2037 34.9458 13.8159 32.0003 13.8159C29.0548 13.8159 26.667 16.2037 26.667 19.1492C26.667 22.0947 29.0548 24.4825 32.0003 24.4825Z" stroke="#525560" stroke-width="5" stroke-linecap="round" stroke-linejoin="round"/>
</g>
</svg>
