<svg width="27" height="32" viewBox="0 0 27 32" fill="none" xmlns="http://www.w3.org/2000/svg">
<g id="Icon">
<rect id="BG" width="27" height="32" rx="4" fill="#83D187"/>
<path id="Vector" d="M15.1593 16.3329C14.7579 16.7641 14.3347 17.3479 13.9501 18.1308C13.5701 16.5902 13.091 15.4608 12.6068 14.6339C14.8288 6.29868 4 6 4 6C4 6 4.31611 16.4176 9.97145 16.1784C9.95994 15.4808 9.86378 14.7755 9.72905 14.1141C9.64095 13.6829 9.53616 13.2718 9.42791 12.8923C9.06632 11.6335 8.65809 10.7401 8.65809 10.7401C9.07035 11.362 9.4354 11.9555 9.75784 12.5134C10.8674 14.4303 11.4731 15.9211 11.7547 16.7085C12.4496 18.3849 13.0738 21.1422 13.0738 25.6482C13.0738 26.1583 13.4429 26.5714 13.8954 26.5714C14.3491 26.5714 14.7176 26.1583 14.7176 25.6482C14.7176 24.1878 14.6549 22.8884 14.5414 21.7292C14.8034 20.3147 15.199 19.3107 15.6084 18.5995C15.8773 18.0235 16.373 17.0369 17.0409 16.0297C17.6357 15.1337 18.3693 14.2208 19.199 13.5691C19.199 13.5691 17.4975 15.6838 17.3875 17.7539C22.0871 18.0293 22.2696 9.72768 22.2696 9.72768C22.2696 9.72768 13.6691 10.0574 15.1593 16.3329Z" fill="#DDFFDF"/>
</g>
</svg>
