<svg width="27" height="33" viewBox="0 0 27 33" fill="none" xmlns="http://www.w3.org/2000/svg">
<g id="Icon">
<rect id="BG" x="0.429688" y="0.717041" width="26.1877" height="32" rx="4" fill="#83D187"/>
<g id="Vector">
<path d="M13.4133 14.7077C13.5717 14.7794 13.727 14.6039 13.6745 14.4173C13.3142 13.1358 12.0096 12.6578 10.7969 13.7947C10.1589 14.3928 9.91923 14.5198 9.91318 14.5231C10.3337 15.0083 10.8142 16.6367 11.8627 16.8168C13.0177 17.0584 14.04 15.747 13.2036 15.1469C12.6536 14.7522 12.006 14.523 11.3118 14.523C12.0396 14.3337 12.7661 14.4149 13.4133 14.7077Z" fill="#DDFFDF"/>
<path d="M18.6435 13.7946C16.5501 11.8322 15.215 14.9269 16.0449 14.6202C16.6343 14.4023 17.2786 14.3548 17.9249 14.523C16.8298 14.523 15.8204 15.1021 15.1473 16.0449C15.2026 14.5633 15.2862 13.636 15.3832 12.9462C15.9425 12.924 16.6881 12.4027 17.0975 11.4904C17.8034 10.0326 17.4761 8.53781 17.3707 7.5946C16.8192 8.21444 14.4099 7.48816 13.4547 9.377C13.0328 10.2114 13.1554 11.2267 13.5993 11.9697C13.7398 12.2049 14.0757 12.0921 14.0853 11.8066C14.127 10.5649 14.6625 9.62669 15.6608 9.10707C15.2128 9.77692 14.9187 10.5269 14.7667 11.302C14.5306 12.5095 14.2838 13.3015 14.1933 17.1501C14.1841 17.5404 14.458 17.8634 14.7963 17.8586C15.0412 17.855 15.251 17.6756 15.3452 17.4147C15.4885 17.0179 15.7216 16.6072 16.101 16.2309C16.4615 16.6908 17.0102 16.9355 17.5778 16.8167C18.6219 16.6374 19.1091 15.0055 19.5273 14.5229C19.5212 14.5198 19.2814 14.3927 18.6435 13.7946Z" fill="#DDFFDF"/>
<path d="M21.721 18.5898C21.0665 18.0774 20.3542 18.4426 20.0271 18.6605L15.9221 22.1279L13.5185 22.1285L12.9176 21.435H15.125C15.7889 21.435 16.5324 20.936 16.5324 20.0478C16.5324 19.1048 15.7889 18.6605 15.125 18.6605H14.2978C13.6833 18.6605 12.9652 18.7238 12.4589 18.411C11.9778 18.1285 11.4239 17.9677 10.8325 17.9677C9.83959 17.9677 8.9509 18.4245 8.34193 19.145L5.10596 22.8214L8.71133 26.9822L9.91313 24.9018H15.5922C16.1979 24.9018 16.7825 24.6454 17.2353 24.1812L21.762 19.5403C22.0137 19.2824 21.9995 18.808 21.721 18.5898Z" fill="#DDFFDF"/>
</g>
</g>
</svg>
