<svg width="53" height="53" viewBox="0 0 53 53" fill="none" xmlns="http://www.w3.org/2000/svg">
<g id="Icon">
<circle id="Background" cx="26.1658" cy="26.6065" r="26.1658" fill="#FFECBB"/>
<path id="Icon_2" d="M22.6124 25.6296C23.6502 27.7727 25.3831 29.5012 27.5288 30.5334C27.6871 30.6084 27.8621 30.6408 28.0368 30.6275C28.2114 30.6143 28.3795 30.5558 28.5247 30.4578L31.6762 28.3526C31.8155 28.2581 31.9764 28.2005 32.1439 28.1851C32.3114 28.1696 32.4802 28.1969 32.6343 28.2643L38.534 30.7982C38.7356 30.8821 38.9041 31.03 39.0134 31.219C39.1228 31.4081 39.1669 31.6279 39.1391 31.8445C38.9521 33.3039 38.2397 34.6453 37.1353 35.6175C36.0308 36.5897 34.61 37.1261 33.1386 37.1265C28.5916 37.1265 24.2308 35.3202 21.0156 32.105C17.8004 28.8898 15.9941 24.529 15.9941 19.9821C15.9945 18.5107 16.5309 17.0898 17.5031 15.9853C18.4753 14.8809 19.8167 14.1685 21.2761 13.9815C21.4928 13.9537 21.7125 13.9978 21.9016 14.1072C22.0906 14.2165 22.2385 14.385 22.3224 14.5866L24.8563 20.4989C24.9222 20.6506 24.9497 20.8162 24.9366 20.9811C24.9234 21.146 24.8698 21.3051 24.7807 21.4444L22.6754 24.6463C22.5817 24.7912 22.5267 24.9576 22.5156 25.1298C22.5046 25.3019 22.5379 25.474 22.6124 25.6296V25.6296Z" stroke="#DEAA27" stroke-width="2" stroke-linecap="round" stroke-linejoin="round"/>
</g>
</svg>
