<svg width="38" height="38" viewBox="0 0 38 38" fill="none" xmlns="http://www.w3.org/2000/svg">
<g id="usb">
<path id="Vector" d="M23.9083 11.7166V18.0499H25.4916V21.2166H20.7416V8.54989H23.9083L19.1583 2.21655L14.4083 8.54989H17.575V21.2166H12.825V17.9391C13.9333 17.3532 14.725 16.2291 14.725 14.8832C14.725 12.9674 13.1575 11.3999 11.2416 11.3999C9.3258 11.3999 7.7583 12.9674 7.7583 14.8832C7.7583 16.2291 8.54997 17.3532 9.6583 17.9391V21.2166C9.6583 22.9741 11.0675 24.3832 12.825 24.3832H17.575V29.2124C16.4508 29.7982 15.675 30.9541 15.675 32.2999C15.675 34.2316 17.2425 35.7832 19.1583 35.7832C21.0741 35.7832 22.6416 34.2316 22.6416 32.2999C22.6416 30.9541 21.8658 29.7982 20.7416 29.2124V24.3832H25.4916C27.2491 24.3832 28.6583 22.9741 28.6583 21.2166V18.0499H30.2416V11.7166H23.9083Z" fill="black"/>
</g>
</svg>
