<svg width="65" height="64" viewBox="0 0 65 64" fill="none" xmlns="http://www.w3.org/2000/svg">
<g id="credit-card-check-outline">
<path id="Vector" d="M35.1621 50.6667C35.1621 49.76 35.2688 48.88 35.4021 48H8.49544V32H51.1621V34.6667C53.0288 34.6667 54.8154 35.0134 56.4954 35.6V16C56.4954 13.04 54.1221 10.6667 51.1621 10.6667H8.49544C5.53544 10.6667 3.16211 13.04 3.16211 16V48C3.16211 50.9334 5.53544 53.3334 8.49544 53.3334H35.4021C35.2688 52.4534 35.1621 51.5734 35.1621 50.6667ZM8.49544 16H51.1621V21.3334H8.49544V16ZM47.8288 58.6667L40.4954 50.6667L43.5888 47.5734L47.8288 51.8134L57.4021 42.24L60.4954 46L47.8288 58.6667Z" fill="#4B4B4B"/>
</g>
</svg>
