<svg width="32" height="32" viewBox="0 0 32 32" fill="none" xmlns="http://www.w3.org/2000/svg">
<g id="Frame 12">
<g id="Group">
<g id="Group_2">
<path id="Vector" d="M26.7068 10.7572C26.5771 10.2944 26.3244 9.87551 25.9756 9.54491C25.617 9.20415 25.1774 8.9604 24.6985 8.83666C22.9059 8.36417 15.724 8.36417 15.724 8.36417C12.73 8.33011 9.73672 8.47993 6.76107 8.81279C6.28208 8.94568 5.84335 9.19488 5.48392 9.53823C5.13074 9.87804 4.87493 10.2971 4.7413 10.7562C4.42029 12.4856 4.26432 14.2415 4.27549 16.0003C4.26404 17.7576 4.41962 19.513 4.7413 21.2445C4.87207 21.7017 5.12693 22.1188 5.48105 22.4558C5.83518 22.7927 6.27617 23.0361 6.76107 23.165C8.57752 23.6365 15.724 23.6365 15.724 23.6365C18.7219 23.6706 21.719 23.5208 24.6985 23.1879C25.1774 23.0642 25.617 22.8204 25.9756 22.4796C26.3243 22.1491 26.5766 21.7301 26.7058 21.2674C27.0352 19.5387 27.1954 17.7821 27.184 16.0223C27.2088 14.2551 27.0488 12.4902 26.7068 10.7562V10.7572ZM13.4408 19.2686V12.733L19.4161 16.0013L13.4408 19.2686Z" fill="white"/>
</g>
</g>
</g>
</svg>
